<?xml version="1.0" encoding="UTF-8"?>
<svg id="Capa_2" xmlns="http://www.w3.org/2000/svg" viewBox="0 0 212.63 51.25">
  <defs>
    <style>
      .cls-1 {
        fill: #cc132f;
      }

      .cls-2 {
        fill: #3c3c3b;
      }

      .cls-3 {
        fill: #003848;
      }

      .cls-4 {
        fill: #0098cb;
      }

      .cls-5 {
        fill: #ffcb00;
      }

      .cls-6 {
        fill: #004f8c;
      }

      .cls-7 {
        fill: #b79e19;
      }

      .cls-8 {
        fill: #fff;
      }

      .cls-9 {
        fill: #003e50;
      }
    </style>
  </defs>
  <g id="Capa_1-2" data-name="Capa_1">
    <g>
      <g>
        <path class="cls-4" d="M95.24,38.42h3.47c.83,0,1.47.21,1.88.56.42.38.62.85.62,1.45,0,.79-.49,1.3-1.21,1.55v.03c.86.25,1.44.96,1.44,1.92,0,.73-.23,1.23-.68,1.62-.44.39-1.13.62-1.95.62h-3.56v-7.75ZM98.51,41.54c.68,0,1.15-.33,1.15-.93,0-.57-.42-.91-1.12-.91h-1.74v1.84h1.7ZM96.81,44.87h1.81c.76,0,1.21-.42,1.21-1.05,0-.74-.54-1.12-1.26-1.12h-1.77v2.17Z"/>
        <path class="cls-4" d="M105.44,45.55h-.02c-.28.42-.68.75-1.64.75-1.14,0-1.94-.6-1.94-1.7,0-1.23,1-1.62,2.23-1.79.92-.13,1.34-.21,1.34-.63s-.31-.66-.93-.66c-.69,0-1.03.25-1.07.78h-1.31c.04-.98.77-1.83,2.4-1.83s2.34.75,2.34,2.05v2.83c0,.42.07.67.2.77v.05h-1.42c-.09-.11-.14-.37-.17-.62ZM105.45,44.21v-.83c-.26.15-.66.24-1.03.33-.77.17-1.15.35-1.15.87s.35.7.87.7c.85,0,1.31-.52,1.31-1.06Z"/>
        <path class="cls-4" d="M107.67,38.42h1.47v7.75h-1.47v-7.75Z"/>
        <path class="cls-4" d="M109.74,43.39c0-1.65,1.12-2.93,2.74-2.93,1.79,0,2.74,1.37,2.74,3.35h-4.03c.11.86.59,1.39,1.42,1.39.57,0,.91-.26,1.07-.68h1.45c-.21.99-1.08,1.82-2.52,1.82-1.84,0-2.88-1.29-2.88-2.95ZM111.21,42.79h2.47c-.04-.7-.51-1.19-1.18-1.19-.78,0-1.16.47-1.29,1.19Z"/>
        <path class="cls-4" d="M119.12,45.55h-.02c-.28.42-.68.75-1.64.75-1.14,0-1.94-.6-1.94-1.7,0-1.23,1-1.62,2.23-1.79.92-.13,1.34-.21,1.34-.63s-.31-.66-.93-.66c-.69,0-1.03.25-1.07.78h-1.31c.04-.98.77-1.83,2.4-1.83s2.34.75,2.34,2.05v2.83c0,.42.07.67.2.77v.05h-1.42c-.09-.11-.14-.37-.17-.62ZM119.13,44.21v-.83c-.26.15-.66.24-1.03.33-.77.17-1.15.35-1.15.87s.35.7.87.7c.85,0,1.31-.52,1.31-1.06Z"/>
        <path class="cls-4" d="M122.75,41.5h.03c.34-.63.72-.95,1.37-.95.16,0,.26.01.35.04v1.29h-.03c-.97-.1-1.66.41-1.66,1.58v2.71h-1.47v-5.56h1.42v.89Z"/>
        <path class="cls-4" d="M124.66,44.37h1.37c.1.64.55.92,1.21.92s1.02-.25,1.02-.64c0-.53-.7-.59-1.46-.74-1-.2-1.97-.47-1.97-1.68s1-1.78,2.27-1.78c1.46,0,2.28.73,2.39,1.84h-1.33c-.07-.6-.44-.81-1.07-.81-.57,0-.95.22-.95.62,0,.48.74.52,1.53.68.93.2,1.96.46,1.96,1.76,0,1.12-.95,1.79-2.34,1.79-1.62,0-2.52-.78-2.6-1.96Z"/>
      </g>
      <g>
        <path class="cls-3" d="M97.98,28.23h1.63l2.73,7.75h-1.64l-.52-1.65h-2.8l-.51,1.65h-1.59l2.7-7.75ZM97.75,33.14h2.05l-.69-2.23c-.13-.41-.31-1.19-.31-1.19h-.02s-.2.78-.33,1.19l-.69,2.23Z"/>
        <path class="cls-3" d="M102.89,28.23h3.03c2.07,0,3.41,1.67,3.41,3.96,0,1.26-.42,2.36-1.24,3.05-.57.48-1.32.75-2.3.75h-2.9v-7.75ZM105.68,34.63c1.47,0,2.05-.9,2.05-2.44s-.67-2.61-2.01-2.61h-1.26v5.05h1.21Z"/>
        <path class="cls-3" d="M110.07,28.23h3.56c1.5,0,2.49.87,2.49,2.16,0,.91-.42,1.6-1.42,1.88v.03c.72.21,1.08.62,1.18,1.56.11,1.1.07,1.93.34,2.05v.08h-1.51c-.2-.09-.22-.95-.28-1.79-.07-.85-.54-1.32-1.52-1.32h-1.27v3.11h-1.57v-7.75ZM111.64,31.66h1.67c.86,0,1.28-.44,1.28-1.06s-.4-1.1-1.24-1.1h-1.71v2.16Z"/>
      </g>
      <polygon class="cls-4" points="141.27 6.91 138.71 6.91 138.71 2.56 134.36 2.56 134.36 0 141.27 0 141.27 6.91"/>
      <polygon class="cls-4" points="137.35 10.68 134.94 10.68 134.94 6.26 130.52 6.26 130.52 3.85 137.35 3.85 137.35 10.68"/>
      <g>
        <g>
          <polygon class="cls-3" points="141.26 51.24 90.02 51.24 90.02 0 133.1 0 133.1 2.56 92.58 2.56 92.58 48.68 138.7 48.68 138.7 8.1 141.26 8.1 141.26 51.24"/>
          <g>
            <g>
              <path class="cls-9" d="M149.65,19.92h1.46l2.07,5.74h-1.49l-.34-1.03h-2.01l-.33,1.03h-1.43l2.06-5.74ZM151.02,23.61l-.43-1.39c-.1-.3-.22-.81-.22-.81h-.02s-.14.51-.23.81l-.44,1.39h1.35Z"/>
              <path class="cls-9" d="M153.13,25.76h1.27c.07.22.29.4.72.4.55,0,.79-.29.79-.79v-.41h-.03c-.24.27-.55.47-1.05.47-.92,0-1.78-.69-1.78-1.95s.71-2.05,1.73-2.05c.55,0,.91.22,1.16.56h.02v-.44h1.25v3.71c0,.62-.22,1.07-.55,1.36-.36.32-.9.46-1.51.46-1.13,0-1.88-.47-2.01-1.32ZM155.96,23.44c0-.55-.29-1.02-.83-1.02-.49,0-.81.4-.81,1.03s.32,1.02.81,1.02c.57,0,.83-.45.83-1.03Z"/>
              <path class="cls-9" d="M157.56,23.6c0-1.23.86-2.17,2.11-2.17.59,0,1.05.19,1.4.51.49.45.73,1.16.72,2h-2.95c.08.55.39.9.92.9.34,0,.57-.15.68-.41h1.28c-.09.37-.33.72-.69.97-.35.24-.76.38-1.28.38-1.36,0-2.19-.94-2.19-2.18ZM158.29,19.88h1.51l.46,1.19h-1l-.97-1.19ZM160.47,23.16c-.05-.49-.35-.8-.78-.8-.5,0-.75.31-.84.8h1.62Z"/>
              <path class="cls-9" d="M162.15,21.55h1.26v.56h.02c.3-.44.7-.68,1.27-.68.9,0,1.43.64,1.43,1.56v2.67h-1.31v-2.41c0-.43-.22-.73-.64-.73s-.72.36-.72.87v2.27h-1.31v-4.11Z"/>
              <path class="cls-9" d="M166.47,23.61c0-1.24.85-2.17,2.15-2.17,1.12,0,1.83.65,1.95,1.57h-1.26c-.08-.37-.31-.61-.67-.61-.56,0-.84.47-.84,1.21s.28,1.2.84,1.2c.41,0,.66-.24.71-.71h1.25c-.03.95-.79,1.69-1.95,1.69-1.32,0-2.18-.94-2.18-2.17Z"/>
              <path class="cls-9" d="M170.95,19.92h1.31v1.06h-1.31v-1.06ZM170.95,21.55h1.31v4.11h-1.31v-4.11Z"/>
              <path class="cls-9" d="M172.61,24.51c0-.91.72-1.18,1.57-1.29.77-.1,1.04-.18,1.04-.46,0-.26-.17-.44-.56-.44-.42,0-.63.18-.67.53h-1.2c.03-.76.62-1.41,1.86-1.41.62,0,1.04.11,1.33.34.35.26.52.66.52,1.17v2.07c0,.33.03.51.14.59v.06h-1.27c-.06-.09-.1-.25-.14-.46h-.02c-.24.35-.6.56-1.22.56-.82,0-1.4-.44-1.4-1.25ZM175.26,24.19v-.49c-.17.09-.41.15-.67.22-.51.11-.71.24-.71.55,0,.33.24.46.56.46.49,0,.83-.3.83-.74Z"/>
            </g>
            <g>
              <path class="cls-9" d="M147.99,30.17h2.45c1.59,0,2.66,1.15,2.66,2.91,0,1.01-.35,1.82-.99,2.31-.45.34-1.03.52-1.75.52h-2.36v-5.74ZM150.24,34.72c.93,0,1.41-.59,1.41-1.64s-.51-1.72-1.4-1.72h-.85v3.35h.83Z"/>
              <path class="cls-9" d="M153.31,33.85c0-1.23.86-2.17,2.11-2.17.59,0,1.05.19,1.4.51.49.45.73,1.16.72,2h-2.95c.08.55.39.9.92.9.34,0,.57-.15.68-.41h1.28c-.09.37-.33.72-.69.97-.35.24-.76.38-1.28.38-1.36,0-2.19-.94-2.19-2.18ZM156.22,33.42c-.05-.49-.35-.8-.78-.8-.5,0-.75.31-.84.8h1.62Z"/>
              <path class="cls-9" d="M157.65,34.58h1.24c.05.41.32.61.75.61.39,0,.64-.14.64-.41,0-.37-.5-.41-1.04-.51-.71-.12-1.48-.31-1.48-1.28,0-.87.8-1.32,1.77-1.32,1.16,0,1.79.51,1.85,1.32h-1.2c-.05-.37-.3-.48-.66-.48-.32,0-.57.12-.57.38,0,.29.47.33.99.43.72.12,1.57.3,1.57,1.36,0,.9-.79,1.36-1.87,1.36-1.2,0-1.96-.55-2-1.46Z"/>
              <path class="cls-9" d="M161.73,33.85c0-1.23.86-2.17,2.11-2.17.59,0,1.05.19,1.4.51.49.45.73,1.16.72,2h-2.95c.08.55.39.9.92.9.34,0,.57-.15.68-.41h1.28c-.09.37-.33.72-.69.97-.35.24-.76.38-1.28.38-1.36,0-2.19-.94-2.19-2.18ZM164.64,33.42c-.05-.49-.35-.8-.78-.8-.5,0-.75.31-.84.8h1.62Z"/>
              <path class="cls-9" d="M166.32,31.8h1.26v.56h.02c.3-.44.7-.68,1.27-.68.9,0,1.43.64,1.43,1.56v2.67h-1.31v-2.41c0-.43-.22-.73-.64-.73s-.72.36-.72.87v2.27h-1.31v-4.11Z"/>
              <path class="cls-9" d="M170.41,31.8h1.35l.56,1.85c.12.41.22.83.22.83h.02s.1-.42.22-.83l.57-1.85h1.31l-1.42,4.11h-1.41l-1.42-4.11Z"/>
              <path class="cls-9" d="M174.53,33.87c0-1.24.88-2.17,2.2-2.17s2.19.94,2.19,2.17-.87,2.17-2.19,2.17-2.2-.94-2.2-2.17ZM177.6,33.87c0-.75-.3-1.25-.87-1.25s-.87.51-.87,1.25.3,1.24.87,1.24.87-.5.87-1.24Z"/>
              <path class="cls-9" d="M179.3,30.17h1.32v5.74h-1.32v-5.74Z"/>
              <path class="cls-9" d="M181.14,34.5v-2.7h1.3v2.42c0,.45.2.7.62.7.45,0,.72-.34.72-.83v-2.29h1.31v4.11h-1.25v-.51h-.02c-.3.4-.66.63-1.23.63-.95,0-1.44-.62-1.44-1.53Z"/>
              <path class="cls-9" d="M185.64,31.8h1.25v.5h.02c.28-.37.68-.62,1.24-.62,1.09,0,1.76.94,1.76,2.17,0,1.33-.71,2.18-1.79,2.18-.53,0-.91-.21-1.16-.55h-.02v1.78h-1.31v-5.46ZM188.59,33.91c0-.71-.26-1.17-.83-1.17s-.86.51-.86,1.17.32,1.12.88,1.12c.5,0,.8-.43.8-1.12Z"/>
              <path class="cls-9" d="M190.09,34.76c0-.91.72-1.18,1.57-1.29.77-.1,1.04-.18,1.04-.46,0-.26-.17-.44-.56-.44-.42,0-.63.18-.67.53h-1.2c.03-.76.62-1.41,1.86-1.41.62,0,1.04.11,1.33.34.35.26.52.66.52,1.17v2.07c0,.33.03.51.14.59v.06h-1.27c-.06-.09-.1-.25-.14-.46h-.02c-.24.35-.6.56-1.22.56-.82,0-1.4-.44-1.4-1.25ZM192.73,34.44v-.49c-.17.09-.41.15-.67.22-.51.11-.71.24-.71.55,0,.33.24.46.56.46.49,0,.83-.3.83-.74Z"/>
              <path class="cls-9" d="M194.55,31.8h1.25v.59h.02c.26-.43.65-.71,1.24-.71.54,0,.95.28,1.16.72h.02c.32-.5.76-.72,1.29-.72.93,0,1.4.63,1.4,1.56v2.67h-1.31v-2.44c0-.44-.18-.7-.58-.7-.42,0-.65.35-.65.83v2.3h-1.31v-2.44c0-.44-.18-.7-.58-.7s-.65.35-.65.83v2.3h-1.31v-4.11Z"/>
              <path class="cls-9" d="M201.26,33.85c0-1.23.86-2.17,2.11-2.17.59,0,1.05.19,1.4.51.49.45.73,1.16.72,2h-2.95c.08.55.39.9.92.9.34,0,.57-.15.68-.41h1.28c-.09.37-.33.72-.69.97-.35.24-.76.38-1.28.38-1.36,0-2.19-.94-2.19-2.18ZM204.17,33.42c-.05-.49-.35-.8-.78-.8-.5,0-.75.31-.84.8h1.62Z"/>
              <path class="cls-9" d="M205.86,31.8h1.26v.56h.02c.3-.44.7-.68,1.27-.68.9,0,1.43.64,1.43,1.56v2.67h-1.31v-2.41c0-.43-.22-.73-.64-.73s-.72.36-.72.87v2.27h-1.31v-4.11Z"/>
              <path class="cls-9" d="M210.61,34.83v-2.21h-.55v-.82h.55v-1.3h1.28v1.3h.75v.82h-.75v1.93c0,.32.18.4.46.4.11,0,.24,0,.29,0v.95c-.11.03-.36.06-.71.06-.76,0-1.31-.25-1.31-1.13Z"/>
            </g>
            <g>
              <path class="cls-9" d="M147.99,40.43h2.74c1.14,0,2.01.59,2.01,1.65,0,.67-.33,1.16-1,1.39v.02c.5.17.75.48.83,1.05.12.75.04,1.48.24,1.55v.07h-1.38c-.15-.09-.13-.76-.22-1.33-.07-.53-.35-.82-.96-.82h-.86v2.15h-1.42v-5.74ZM150.47,42.96c.56,0,.85-.26.85-.7s-.27-.71-.82-.71h-1.1v1.41h1.07Z"/>
              <path class="cls-9" d="M152.99,44.1c0-1.23.86-2.17,2.11-2.17.59,0,1.05.19,1.4.51.49.45.73,1.16.72,2h-2.95c.08.55.39.9.92.9.34,0,.57-.15.68-.41h1.28c-.09.37-.33.72-.69.97-.35.24-.76.38-1.28.38-1.36,0-2.19-.94-2.19-2.18ZM155.91,43.67c-.05-.49-.35-.8-.78-.8-.5,0-.75.31-.84.8h1.62Z"/>
              <path class="cls-9" d="M157.5,46.26h1.27c.07.22.29.4.72.4.55,0,.79-.29.79-.79v-.41h-.03c-.24.27-.55.47-1.05.47-.92,0-1.78-.69-1.78-1.95s.71-2.05,1.73-2.05c.55,0,.91.22,1.16.56h.02v-.44h1.25v3.71c0,.62-.22,1.07-.55,1.36-.36.32-.9.46-1.51.46-1.13,0-1.88-.47-2.01-1.32ZM160.33,43.94c0-.55-.29-1.02-.83-1.02-.49,0-.81.4-.81,1.03s.32,1.02.81,1.02c.57,0,.83-.45.83-1.03Z"/>
              <path class="cls-9" d="M162.11,40.43h1.31v1.06h-1.31v-1.06ZM162.11,42.06h1.31v4.11h-1.31v-4.11Z"/>
              <path class="cls-9" d="M163.79,44.12c0-1.24.88-2.17,2.2-2.17s2.19.94,2.19,2.17-.87,2.17-2.19,2.17-2.2-.94-2.2-2.17ZM166.86,44.12c0-.75-.3-1.25-.87-1.25s-.87.51-.87,1.25.3,1.24.87,1.24.87-.5.87-1.24Z"/>
              <path class="cls-9" d="M168.55,42.06h1.26v.56h.02c.3-.44.7-.68,1.27-.68.9,0,1.43.64,1.43,1.56v2.67h-1.31v-2.41c0-.43-.22-.73-.64-.73s-.72.36-.72.87v2.27h-1.31v-4.11Z"/>
              <path class="cls-9" d="M172.85,45.02c0-.91.72-1.18,1.57-1.29.77-.1,1.04-.18,1.04-.46,0-.26-.17-.44-.56-.44-.42,0-.63.18-.67.53h-1.2c.03-.76.62-1.41,1.86-1.41.62,0,1.04.11,1.33.34.35.26.52.66.52,1.17v2.07c0,.33.03.51.14.59v.06h-1.27c-.06-.09-.1-.25-.14-.46h-.02c-.24.35-.6.56-1.22.56-.82,0-1.4-.44-1.4-1.25ZM175.5,44.7v-.49c-.17.09-.41.15-.67.22-.51.11-.71.24-.71.55,0,.33.24.46.56.46.49,0,.83-.3.83-.74Z"/>
              <path class="cls-9" d="M177.32,40.43h1.32v5.74h-1.32v-5.74Z"/>
            </g>
            <g>
              <path class="cls-4" d="M180.39,40.43h2.77c.59,0,1.04.14,1.34.39.33.27.5.64.5,1.1,0,.57-.3.93-.8,1.12v.02c.63.19,1.03.72,1.03,1.4,0,.58-.21.99-.59,1.28-.34.26-.81.41-1.41.41h-2.83v-5.74ZM182.95,42.7c.41,0,.69-.2.69-.58s-.26-.57-.68-.57h-1.16v1.15h1.16ZM183.06,45.02c.47,0,.75-.27.75-.67,0-.46-.34-.69-.77-.69h-1.25v1.36h1.27Z"/>
              <path class="cls-4" d="M185.47,45.02c0-.91.72-1.18,1.57-1.29.77-.1,1.04-.18,1.04-.46,0-.26-.17-.44-.56-.44-.42,0-.63.18-.67.53h-1.2c.03-.76.62-1.41,1.86-1.41.62,0,1.04.11,1.33.34.35.26.52.66.52,1.17v2.07c0,.33.03.51.14.59v.06h-1.27c-.06-.09-.1-.25-.14-.46h-.02c-.24.35-.6.56-1.22.56-.82,0-1.4-.44-1.4-1.25ZM188.11,44.7v-.49c-.17.09-.41.15-.67.22-.51.11-.71.24-.71.55,0,.33.24.46.56.46.49,0,.83-.3.83-.74Z"/>
              <path class="cls-4" d="M189.93,40.43h1.32v5.74h-1.32v-5.74Z"/>
              <path class="cls-4" d="M191.63,44.1c0-1.23.86-2.17,2.11-2.17.59,0,1.05.19,1.4.51.49.45.73,1.16.72,2h-2.95c.08.55.39.9.92.9.34,0,.57-.15.68-.41h1.28c-.09.37-.33.72-.69.97-.35.24-.76.38-1.28.38-1.36,0-2.19-.94-2.19-2.18ZM194.54,43.67c-.05-.49-.35-.8-.78-.8-.5,0-.75.31-.84.8h1.62Z"/>
              <path class="cls-4" d="M196.04,45.02c0-.91.72-1.18,1.57-1.29.77-.1,1.04-.18,1.04-.46,0-.26-.17-.44-.56-.44-.42,0-.63.18-.67.53h-1.2c.03-.76.62-1.41,1.86-1.41.62,0,1.04.11,1.33.34.35.26.52.66.52,1.17v2.07c0,.33.03.51.14.59v.06h-1.27c-.06-.09-.1-.25-.14-.46h-.02c-.24.35-.6.56-1.22.56-.82,0-1.4-.44-1.4-1.25ZM198.69,44.7v-.49c-.17.09-.41.15-.67.22-.51.11-.71.24-.71.55,0,.33.24.46.56.46.49,0,.83-.3.83-.74Z"/>
              <path class="cls-4" d="M200.5,42.06h1.25v.64h.02c.29-.49.63-.71,1.12-.71.12,0,.2,0,.26.03v1.12h-.03c-.8-.11-1.32.28-1.32,1.17v1.85h-1.31v-4.11Z"/>
              <path class="cls-4" d="M203.25,44.83h1.24c.05.41.32.61.75.61.39,0,.64-.14.64-.41,0-.37-.5-.41-1.04-.51-.71-.12-1.48-.31-1.48-1.28,0-.87.8-1.32,1.77-1.32,1.16,0,1.79.51,1.85,1.32h-1.2c-.05-.37-.3-.48-.66-.48-.32,0-.57.12-.57.38,0,.29.47.33.99.43.72.12,1.57.3,1.57,1.36,0,.9-.79,1.36-1.87,1.36-1.2,0-1.96-.55-2-1.46Z"/>
            </g>
          </g>
        </g>
        <g>
          <path class="cls-7" d="M37.11,31.81c0,9.76-7.92,17.67-17.67,17.67S1.77,41.58,1.77,31.81V3.53c0-.98.79-1.77,1.77-1.77h31.81c.98,0,1.77.79,1.77,1.77v28.28h0ZM35.35,0H3.54C1.59,0,0,1.58,0,3.54v28.28c0,10.74,8.71,19.44,19.44,19.44s19.44-8.71,19.44-19.44V3.53c0-1.95-1.58-3.53-3.53-3.53"/>
          <polygon class="cls-1" points="10.6 3.53 7.08 3.53 10.6 7.44 10.6 3.53"/>
          <polygon class="cls-5" points="10.6 7.07 10.6 3.53 14.14 3.53 14.14 11.37 10.6 7.44 10.6 7.07"/>
          <polygon class="cls-1" points="14.14 3.53 17.67 3.53 17.67 15.3 14.14 11.37 14.14 3.53"/>
          <polygon class="cls-5" points="17.67 3.53 21.21 3.53 21.21 19.23 17.67 15.3 17.67 3.53"/>
          <polygon class="cls-1" points="21.21 3.53 24.75 3.53 24.75 23.17 21.21 19.23 21.21 3.53"/>
          <polygon class="cls-5" points="24.75 22.09 24.75 3.53 28.28 3.53 28.28 24.74 28.28 27.09 24.75 23.17 24.75 22.09"/>
          <polygon class="cls-1" points="28.28 3.53 31.81 3.53 31.81 31.02 28.28 27.09 28.28 3.53"/>
          <path class="cls-5" d="M31.81,31.02V3.53h3.54v28.28c0,.97-.08,1.93-.25,2.85l-3.28-3.65Z"/>
          <path class="cls-5" d="M3.54,31.83c0,3.79,1.32,7.27,3.54,10v-24.5l-3.54-3.91v18.42Z"/>
          <path class="cls-1" d="M7.07,17.33v24.51c1.01,1.25,2.2,2.34,3.54,3.23v-23.87l-3.54-3.88Z"/>
          <path class="cls-5" d="M10.6,21.2v23.86c1.09.73,2.28,1.33,3.54,1.78v-21.75l-3.54-3.88Z"/>
          <path class="cls-1" d="M14.14,46.8c1.13.4,2.31.67,3.54.81v-18.65l-3.54-3.88v21.72Z"/>
          <path class="cls-5" d="M17.67,45.07v2.56c.58.07,1.17.1,1.77.1s1.19-.03,1.77-.1v-14.77l-3.54-3.89v16.11Z"/>
          <path class="cls-1" d="M24.75,36.73l-3.54-3.89v14.77c1.23-.14,2.41-.41,3.54-.81v-10.07Z"/>
          <polygon class="cls-8" points="24.75 34.08 24.79 34.05 24.75 34 24.75 34.08"/>
          <path class="cls-5" d="M24.75,46.81c1.26-.44,2.45-1.04,3.54-1.78v-4.41l-3.54-3.89v10.08Z"/>
          <path class="cls-1" d="M28.28,40.62v4.42c.83-.55,1.6-1.18,2.31-1.88l-2.31-2.54Z"/>
          <path class="cls-6" d="M31.81,41.81c1.22-1.51,2.17-3.24,2.77-5.13l-1.87-2.06L4.57,3.54h-1.04v7.18l27.56,30.33.7.76h.01Z"/>
        </g>
        <rect class="cls-2" x="63.68" y=".1" width="1.72" height="51.14"/>
      </g>
    </g>
  </g>
</svg>